# xmcd
#
# Track frame offsets:
#	150
#	18235
#	41325
#	59490
#	85940
#	108795
#	129577
#
# Disc length: 1959 seconds
#
# Revision: 1
# Processed by: cddbd v1.5.2PL0 Copyright (c) Steve Scherf et al.
# Submitted via: audiograbber 1.83.01
#
DISCID=4f07a507
DTITLE=Letta Mbulu - Sound Of A Rainbow
DYEAR=1996
DGENRE=Jazz
TTITLE0=Ndi Phendule
TTITLE1=Kilimanjaro, Take Us Higher
TTITLE2=Help Me Somebody
TTITLE3=Everybody Sing Along
TTITLE4=Music Is A Rainbow
TTITLE5=Love Beyond
TTITLE6=Don't Let Go Of Me
EXTD=Classic Collection, Letta Mbulu, Sound of a Rainbow, 1996, recorded in Sou
EXTD=th Africa
EXTT0=
EXTT1=
EXTT2=
EXTT3=
EXTT4=
EXTT5=
EXTT6=
PLAYORDER=
